<?xml version="1.0" encoding="UTF-8" standalone="no"?>
<!-- Created with Inkscape (http://www.inkscape.org/) -->

<svg
   width="135.46667mm"
   height="105.19453mm"
   viewBox="0 0 135.46667 105.19454"
   version="1.1"
   id="svg3217"
   inkscape:version="1.3.2 (091e20e, 2023-11-25, custom)"
   xml:space="preserve"
   sodipodi:docname="Kibon 2000s.svg"
   xmlns:inkscape="http://www.inkscape.org/namespaces/inkscape"
   xmlns:sodipodi="http://sodipodi.sourceforge.net/DTD/sodipodi-0.dtd"
   xmlns="http://www.w3.org/2000/svg"
   xmlns:svg="http://www.w3.org/2000/svg"><sodipodi:namedview
     id="namedview3219"
     pagecolor="#505050"
     bordercolor="#eeeeee"
     borderopacity="0"
     inkscape:showpageshadow="true"
     inkscape:pageopacity="0"
     inkscape:pagecheckerboard="false"
     inkscape:deskcolor="#d1d1d1"
     inkscape:document-units="mm"
     showgrid="false"
     inkscape:zoom="2.8945806"
     inkscape:cx="107.96037"
     inkscape:cy="108.99679"
     inkscape:window-width="1920"
     inkscape:window-height="991"
     inkscape:window-x="-9"
     inkscape:window-y="-9"
     inkscape:window-maximized="1"
     inkscape:current-layer="layer1" /><defs
     id="defs3214" /><g
     inkscape:label="Layer 1"
     inkscape:groupmode="layer"
     id="layer1"
     transform="translate(-106.55314,-90.327988)"><path
       class="st0"
       d="m 141.17955,90.328167 c 14.09002,0 26.24611,5.709687 31.7716,9.945883 0.9209,0.73675 1.56555,0.73675 2.2102,0.18413 3.68365,-2.48649 14.73463,-9.945888 29.92975,-9.945888 18.32619,0 36.92871,9.30124 36.92871,29.469268 0,12.34029 -8.47244,25.32518 -22.83872,34.0739 -3.68365,2.2102 -8.01194,4.14411 -12.52444,5.80175 -2.67065,0.92091 -3.77574,-0.0922 -1.013,-2.1181 6.72266,-5.06504 24.12798,-18.32622 24.12798,-34.9027 0,-11.23518 -10.40634,-22.65452 -28.45631,-22.65452 -13.81373,0 -23.94378,7.73569 -25.78562,9.02498 -0.9209,0.73671 -1.56555,0.55255 -2.48645,-0.0922 -5.06504,-4.42039 -15.10303,-9.20914 -26.89076,-9.20914 -14.36628,0 -27.25907,7.82775 -27.25907,21.91778 0,25.60146 44.296,36.0999 55.16283,36.0999 2.67065,0 26.43026,-8.28824 26.43026,-28.18001 0,-7.09109 -4.42039,-11.69564 -10.22217,-11.69564 -7.5515,0 -11.8798,6.3543 -14.91883,9.94589 -0.64462,0.73671 -1.65765,1.1972 -2.30226,-0.0922 -2.67069,-4.6967 -7.73569,-9.9459 -14.64258,-9.9459 -6.26223,0 -9.94588,4.4204 -9.94588,9.39335 0,11.69563 16.20812,18.87877 23.75961,21.54942 1.3814,0.55255 1.3814,2.026 -0.64464,1.84184 -10.6826,-1.1972 -37.48125,-9.30127 -37.48125,-26.70656 0,-7.18315 6.17014,-15.10303 18.51041,-15.10303 8.28824,0 16.20809,4.51249 20.72058,10.03798 0.46046,0.55255 1.1972,0.55255 1.56555,0.0922 0.36839,-0.36835 10.03799,-9.76169 21.54943,-9.76169 8.28823,0 17.12902,5.61755 17.12902,17.49739 0,12.24818 -10.77469,24.49636 -19.79967,30.11391 -9.20915,5.80179 -18.14203,8.38034 -20.26013,8.19618 -35.45525,-3.03904 -66.95056,-23.66756 -66.95056,-47.88763 0,-11.97189 9.11705,-26.890722 34.62641,-26.890722 z"
       id="path36"
       style="clip-rule:evenodd;fill:#e63027;fill-rule:evenodd;stroke-width:0.920914" /><path
       style="font-variation-settings:normal;display:inline;opacity:1;vector-effect:none;fill:#e63027;fill-opacity:1;fill-rule:nonzero;stroke:none;stroke-width:0.920914;stroke-linecap:butt;stroke-linejoin:miter;stroke-miterlimit:4;stroke-dasharray:none;stroke-dashoffset:0;stroke-opacity:1;-inkscape-stroke:none;stop-color:#000000;stop-opacity:1"
       d="m 197.43947,184.39621 c 0,-5.74804 -4.22562,-10.6537 -10.12208,-10.6537 -5.8999,0 -10.12204,4.90566 -10.12204,10.6537 0,5.81366 4.13234,10.62955 10.12204,10.62955 5.98967,0 10.12208,-4.81589 10.12208,-10.62955 z m -4.7538,-0.0278 c 0,3.14158 -2.0196,6.07947 -5.36828,6.07947 -3.34867,0 -5.37171,-2.93789 -5.37171,-6.07947 0,-3.13813 1.9954,-6.04491 5.37171,-6.04491 3.37632,0 5.36828,2.90678 5.36828,6.04491"
       id="path8789-9" /><path
       id="path6527-6"
       style="font-variation-settings:normal;display:inline;opacity:1;vector-effect:none;fill:#e63027;fill-opacity:1;fill-rule:nonzero;stroke:none;stroke-width:0.920914;stroke-linecap:butt;stroke-linejoin:miter;stroke-miterlimit:4;stroke-dasharray:none;stroke-dashoffset:0;stroke-opacity:1;-inkscape-stroke:none;stop-color:#000000;stop-opacity:1"
       d="m 202.1467,173.21728 z m 0,0 c 0.062,7.16574 -0.0174,14.37509 0,21.54156 1.43064,-0.0985 2.86592,-0.0741 4.29868,-0.0244 -0.007,-3.8392 0.0717,-7.72177 -0.007,-11.55971 4.35276,4.10181 8.69812,8.21205 13.04841,12.31654 v -21.45252 c -1.45118,0.0104 -2.90249,0.0348 -4.35217,-0.0279 1.4e-4,0.0279 0.0442,7.66709 -0.0658,11.50229 -4.3072,-4.09813 -8.55743,-8.25862 -12.9214,-12.29712 z"
       mask="none"
       sodipodi:nodetypes="ccccccccccccc"
       inkscape:label="path10310" /><path
       id="path10312-5-6"
       d="m 149.28363,194.75981 h 4.48945 V 174.0394 h -4.48945 z"
       style="font-variation-settings:normal;display:inline;opacity:1;vector-effect:none;fill:#e63027;fill-opacity:1;fill-rule:nonzero;stroke:none;stroke-width:0.920914;stroke-linecap:butt;stroke-linejoin:miter;stroke-miterlimit:4;stroke-dasharray:none;stroke-dashoffset:0;stroke-opacity:1;-inkscape-stroke:none;stop-color:#000000;stop-opacity:1" /><path
       id="path2181-5"
       d="m 168.22982,180.32141 c 0,1.11439 -0.79271,2.02524 -1.93739,2.02524 h -1.70227 v -4.07992 h 1.64359 c 1.20336,0 1.99607,0.88 1.99607,2.05468 z m 4.72471,8.45183 c 0,-1.99436 -1.17378,-3.66872 -2.96431,-4.46028 1.64358,-0.85196 2.55321,-2.43648 2.55321,-4.28486 0,-3.90314 -2.87604,-5.9887 -6.57393,-5.9887 h -5.63489 v 20.72107 h 6.60303 c 3.61073,0 6.01689,-2.34803 6.01689,-5.98723 z m -4.28445,-0.29307 c 0,1.20419 -0.85136,2.05468 -2.08392,2.05468 h -1.996 v -4.04908 h 1.996 c 1.17336,0 2.08392,0.73264 2.08392,1.9944"
       style="font-variation-settings:normal;display:inline;opacity:1;vector-effect:none;fill:#e63027;fill-opacity:1;fill-rule:nonzero;stroke:none;stroke-width:0.920914;stroke-linecap:butt;stroke-linejoin:miter;stroke-miterlimit:4;stroke-dasharray:none;stroke-dashoffset:0;stroke-opacity:1;-inkscape-stroke:none;stop-color:#000000;stop-opacity:1" /><path
       style="font-variation-settings:normal;display:inline;opacity:1;vector-effect:none;fill:#e63027;fill-opacity:1;fill-rule:nonzero;stroke:none;stroke-width:0.920914;stroke-linecap:butt;stroke-linejoin:miter;stroke-miterlimit:4;stroke-dasharray:none;stroke-dashoffset:0;stroke-opacity:1;-inkscape-stroke:none;stop-color:#000000;stop-opacity:1"
       d="m 140.57618,195.52252 -6.69091,-7.45348 v 6.69094 h -4.49342 V 174.0394 h 4.49342 v 7.33459 l 6.66227,-7.92497 3.19786,2.8207 -7.36741,8.21605 7.57238,7.98647 z"
       id="path6305-6" /></g></svg>
