<?xml version="1.0" encoding="UTF-8"?>
<svg width="500" height="337" version="1.1" viewBox="0 0 500 337" xmlns="http://www.w3.org/2000/svg">
 <g transform="matrix(3.2072 0 0 3.2072 -1.4908e-7 .3376)">
  <path class="cls-1" d="m155.9 62.36a77.95 42.52 0 0 1-77.95 42.52 77.95 42.52 0 0 1-77.95-42.52 77.95 42.52 0 0 1 77.95-42.52 77.95 42.52 0 0 1 77.95 42.52z" fill="#e30613"/>
  <path class="cls-2" d="m29.28 24.75a8.09 8.09 0 0 1 3.56-3.67 3.59 3.59 0 0 1 3.67 0.37l18.57 13.24a3.54 3.54 0 0 1 1.31 1.59 2.42 2.42 0 0 1-0.22 2.08l-1.1 2a2.4 2.4 0 0 1-1.64 1.29 3.61 3.61 0 0 1-2-0.26l-21.12-8.76a3.6 3.6 0 0 1-2.26-2.91 8.13 8.13 0 0 1 1.23-4.97zm97.35 0a8.1 8.1 0 0 0-3.57-3.67 3.58 3.58 0 0 0-3.66 0.37l-18.58 13.24a3.58 3.58 0 0 0-1.3 1.59 2.38 2.38 0 0 0 0.22 2.08l1.1 2a2.38 2.38 0 0 0 1.64 1.29 3.58 3.58 0 0 0 2-0.26l21.08-8.74a3.57 3.57 0 0 0 2.25-2.91 8 8 0 0 0-1.18-4.99zm-47.46 6.25a2.62 2.62 0 0 0 2-0.83 3.67 3.67 0 0 0 0.81-2l2.81-23.31a3.65 3.65 0 0 0-1.56-3.48 8.85 8.85 0 0 0-5.23-1.38 8.9 8.9 0 0 0-5.28 1.38 3.62 3.62 0 0 0-1.55 3.48l2.7 23.34a3.61 3.61 0 0 0 0.82 2 2.59 2.59 0 0 0 2 0.83h2.43zm-12 1.54a2.16 2.16 0 0 0 1.06-1.44 2.59 2.59 0 0 0-0.27-1.62l-7.27-14.95a2.59 2.59 0 0 0-2.3-1.5 6.78 6.78 0 0 0-3.84 1.25 6.84 6.84 0 0 0-2.81 2.91 2.59 2.59 0 0 0 0.34 2.72l10.27 13.09a2.63 2.63 0 0 0 1.35 0.95 2.12 2.12 0 0 0 1.75-0.32l0.83-0.52zm22.5 0.52 0.84 0.52a2.11 2.11 0 0 0 1.75 0.32 2.67 2.67 0 0 0 1.3-0.9l10.26-13a2.57 2.57 0 0 0 0.34-2.72 6.75 6.75 0 0 0-2.8-2.91 6.78 6.78 0 0 0-3.85-1.37 2.61 2.61 0 0 0-2.3 1.5l-7.21 14.98a2.58 2.58 0 0 0-0.26 1.62 2.1 2.1 0 0 0 1.06 1.44z" fill="#ffe600"/>
  <path class="cls-3" d="m128.6 72.36a6.88 6.88 0 0 1-7-7.25c0-4.55 3-7.36 7-7.36s7.14 2.81 7.14 7.36a7 7 0 0 1-7.14 7.25m-1.51 6.64c3.57 0 6.92-1.3 8.65-4.22v2.48a1 1 0 0 0 1.09 1.09h4.86a1 1 0 0 0 1.09-1.09v-24.45a1 1 0 0 0-1.09-1.08h-4.86a1 1 0 0 0-1.09 1.08v2.45a10.2 10.2 0 0 0-8.65-4.11c-7.36 0-12.88 5.63-12.88 14s5.52 13.85 12.88 13.85m-13.85-21.47a15.51 15.51 0 0 1 2.36-3.74 1.13 1.13 0 0 0-0.3-1.77 8 8 0 0 0-3.36-0.54c-2.7 0-6.27 0.75-8.44 4l-0.65 1v-3.67a1 1 0 0 0-1.08-1.08h-5a1 1 0 0 0-1.09 1.08v24.41a1 1 0 0 0 1.09 1.09h5a1 1 0 0 0 1.08-1.09v-10.17c0-5.19 2.92-8.33 7.36-8.33 1.84 0 2.38 0.33 3.03-1.19zm-35.24 14.83c-3.9 0-6.82-2.93-6.82-7.25 0-4.55 2.92-7.36 6.82-7.36s7.14 2.81 7.14 7.36a7 7 0 0 1-7.14 7.25m-1.55 6.64c3.58 0 6.93-1.3 8.66-4.22v2.48a1 1 0 0 0 1.08 1.09h4.87a1 1 0 0 0 1.08-1.09v-24.45a1 1 0 0 0-1.08-1.08h-4.87a1 1 0 0 0-1.08 1.08v2.45a10.2 10.2 0 0 0-8.66-4.11c-7 0-12.65 5.63-12.65 14s5.62 13.85 12.65 13.85m-26.39 0c4.86 0 8.33-1.63 10.6-4.33a1.18 1.18 0 0 0-0.22-1.84l-2.7-2.38a1 1 0 0 0-1.41 0 9.11 9.11 0 0 1-6.27 2.38 6.43 6.43 0 0 1-6.71-5.52h13.85c3 0 4.54-1.51 4.54-4.65 0-5.63-4.33-11.47-12.44-11.47-7.57 0-13 6-13 13.74 0 8.76 6 14.07 13.74 14.07m-27.7 0c6.92 0 12-4.33 12-10.39 0-5.63-3.46-9-10.39-10.71-4.33-1.08-6.27-1.84-6.27-4.11 0-1.84 2.05-3.14 5-3.14a12.5 12.5 0 0 1 7.14 2.27 1 1 0 0 0 1.52-0.43l1.95-3.49a1.2 1.2 0 0 0-0.22-1.63 17.07 17.07 0 0 0-10.39-3.37c-7.25 0-12.22 4-12.22 10.06 0 6.28 3.78 8.87 10.6 10.6 3.57 0.87 5.84 1.84 5.84 4.22 0 2.06-1.73 3.47-4.54 3.47a12.46 12.46 0 0 1-8.22-3 1 1 0 0 0-1.52 0.1l-2.49 3.68a1.11 1.11 0 0 0 0.22 1.63 18.91 18.91 0 0 0 12 4.22m32.46-17.1h-11.25a5.86 5.86 0 0 1 6.17-4.65 4.93 4.93 0 0 1 5.09 4.65" fill="#fff"/>
 </g>
</svg>